<?xml version="1.0" encoding="UTF-8"?>
<svg version="1.1" xmlns="http://www.w3.org/2000/svg" width="470" height="236">
<path d="M0 0 C155.1 0 310.2 0 470 0 C470 77.88 470 155.76 470 236 C314.9 236 159.8 236 0 236 C0 158.12 0 80.24 0 0 Z " fill="#0C131A" transform="translate(0,0)"/>
<path d="M0 0 C5.61 -0.103125 11.22 -0.20625 17 -0.3125 C19.63162109 -0.38078003 19.63162109 -0.38078003 22.31640625 -0.45043945 C36.37180919 -0.66702101 36.37180919 -0.66702101 41.65429688 3.59082031 C46.48930642 8.65389635 46.56760715 13.11723764 46.4296875 19.890625 C45.80333001 24.42317553 44.38817262 26.01518126 41 29 C40.34 29.66 39.68 30.32 39 31 C39.48210937 31.38671875 39.96421875 31.7734375 40.4609375 32.171875 C41.09257812 32.69265625 41.72421875 33.2134375 42.375 33.75 C43.00148438 34.26046875 43.62796875 34.7709375 44.2734375 35.296875 C47.45243223 38.43271595 48.31817303 41.34192152 48.4375 45.75 C48.30342315 51.09730029 46.91813532 55.26144588 43 59 C37.52367529 62.46682073 32.97984041 63.57434958 26.5625 63.390625 C25.88251953 63.38659668 25.20253906 63.38256836 24.50195312 63.37841797 C22.00102118 63.35774449 19.50047879 63.30190193 17 63.25 C8.585 63.12625 8.585 63.12625 0 63 C0 42.21 0 21.42 0 0 Z " fill="#D8D2BA" transform="translate(244,142)"/>
<path d="M0 0 C4.29 0 8.58 0 13 0 C13 21.78 13 43.56 13 66 C9.04 66 5.08 66 1 66 C1 64.68 1 63.36 1 62 C0.21689453 62.54140625 0.21689453 62.54140625 -0.58203125 63.09375 C-6.67251564 66.93363508 -11.83766009 68.41389131 -19 67 C-25.2185818 64.52604408 -29.50508107 60.36536194 -32.1875 54.24609375 C-33.26742399 49.93158974 -33.50042772 45.81124181 -33.5625 41.375 C-33.57740479 40.57553955 -33.59230957 39.7760791 -33.60766602 38.95239258 C-33.49074629 32.24645834 -31.63010307 27.03961473 -27.21875 21.94140625 C-26.36796875 21.25884766 -26.36796875 21.25884766 -25.5 20.5625 C-24.9328125 20.08941406 -24.365625 19.61632812 -23.78125 19.12890625 C-19.68454117 16.53252719 -14.72106483 16.34618347 -10 17 C-7.18269191 18.09721693 -4.59515746 19.45394875 -2 21 C-2 21.66 -2 22.32 -2 23 C-1.34 23 -0.68 23 0 23 C0 15.41 0 7.82 0 0 Z " fill="#D8D2BA" transform="translate(388,64)"/>
<path d="M0 0 C2.4811529 1.91403224 3.76355326 3.37510506 4.875 6.3125 C6.23983523 9.57293971 8.18174414 11.67673803 10.5625 14.25390625 C13.34628099 17.6352924 14 19.53883855 14 24 C14.66 23.67 15.32 23.34 16 23 C17.91676312 23.18651138 19.83341385 23.37417872 21.75 23.5625 C24.98990907 23.72555954 24.98990907 23.72555954 28 23 C30.85260615 20.05754799 32.29705437 16.68971552 34 13 C35.33333333 11.33333333 36.66666667 9.66666667 38 8 C38.67349161 6.33607955 39.3409159 4.66967972 40 3 C41.3125 1.1875 41.3125 1.1875 43 0 C45.84496772 -0.42674516 47.36352369 -0.36066991 49.875 1.0625 C51 3 51 3 51.1875 6.4375 C50 10 50 10 48.3515625 11.02734375 C46.95001054 11.60998125 45.54761815 12.1905999 44.14453125 12.76953125 C40.20296838 15.03108371 37.95368501 18.98162515 36 23 C36 23.99 36 24.98 36 26 C37.67006079 27.69792245 37.67006079 27.69792245 39.8125 29.3125 C44.1093274 32.97050704 46.60367523 35.7391 47.30859375 41.5390625 C47.59420911 47.82260042 46.95538925 52.96486662 43 58 C35.70242525 64.84052414 29.33562814 66.42160039 19.4453125 66.24609375 C11.76263286 65.69733092 6.15138157 62.75101329 1 57 C-2.64885249 51.11475404 -3.10318133 44.80442242 -2 38 C0.32976327 32.85039381 3.3795064 29.22430097 8 26 C7.21776663 20.17896469 4.27280249 16.86296225 0 13 C-3.15501165 11.58409628 -3.15501165 11.58409628 -6 11 C-8 9 -8 9 -8.3125 6.0625 C-8 3 -8 3 -6.8125 1.125 C-4.30201593 -0.43323149 -2.90697947 -0.49631357 0 0 Z " fill="#D9D2B8" transform="translate(98,44)"/>
<path d="M0 0 C5.85078426 3.40320618 9.32458507 8.72375522 11.4375 15.0625 C12.63702601 31.63955611 12.63702601 31.63955611 7.4375 38.0625 C1.8711182 44.06978333 -4.11768621 47.16124946 -12.375 47.5625 C-19.52942634 47.35655281 -25.09426353 45.15656988 -30.4453125 40.3828125 C-36.64015785 33.64928495 -37.01910792 26.58877592 -36.87109375 17.69921875 C-36.30343369 11.00945269 -34.0156307 7.16167961 -29.125 2.6875 C-21.30771269 -3.80574561 -9.08694207 -4.00488329 0 0 Z " fill="#D8D2BA" transform="translate(337.5625,83.9375)"/>
<path d="M0 0 C4.85622819 3.75200026 7.2987472 7.76701165 8.16015625 13.796875 C6.74837795 14.33081679 5.33045381 14.84852604 3.91015625 15.359375 C3.12125 15.64941406 2.33234375 15.93945312 1.51953125 16.23828125 C-1.10233791 16.8590218 -2.36504917 16.82630636 -4.83984375 15.796875 C-6.52716652 13.81427074 -8.19350432 11.8136408 -9.83984375 9.796875 C-14.46168907 6.84127435 -19.55080875 7.08297042 -24.83984375 7.796875 C-30.18265044 10.71113319 -32.14564347 14.44748682 -34.14453125 20.125 C-36.32432049 28.50126877 -34.77643577 36.15153229 -30.83984375 43.796875 C-26.8107895 47.82592925 -24.05960445 48.9468766 -18.46484375 48.984375 C-17.50835937 48.99855469 -16.551875 49.01273438 -15.56640625 49.02734375 C-12.74050953 48.78847855 -11.19039713 48.35193543 -8.83984375 46.796875 C-6.59577121 43.76485575 -6.59577121 43.76485575 -4.83984375 40.796875 C-0.54984375 41.126875 3.74015625 41.456875 8.16015625 41.796875 C6.9353118 49.14594167 4.84981376 52.99227533 -0.83984375 57.796875 C-3.4391703 59.0499368 -6.07394937 59.98305319 -8.83984375 60.796875 C-9.46503906 60.9825 -10.09023438 61.168125 -10.734375 61.359375 C-18.6355666 63.00118105 -27.59077704 62.42140835 -34.83984375 58.796875 C-43.40252978 52.93168255 -47.02871611 46.73953096 -49.58984375 36.921875 C-50.52577259 25.2227645 -50.21662584 15.01672016 -42.50390625 5.61328125 C-31.07972228 -6.85677872 -14.6551234 -9.5833928 0 0 Z " fill="#D8D2BA" transform="translate(287.83984375,69.203125)"/>
<path d="M0 0 C1.7634375 -0.01160156 1.7634375 -0.01160156 3.5625 -0.0234375 C10.00035294 0.72276818 13.77680482 3.58790371 17.67578125 8.5 C22.58865718 15.45628451 22 19.26259275 22 28.375 C11.77 28.375 1.54 28.375 -9 28.375 C-6.71183213 34.91076165 -6.71183213 34.91076165 -4 37.375 C-0.63487539 37.87918243 2.63169205 37.84221691 6 37.375 C8.63516042 35.58308542 8.63516042 35.58308542 10 33.375 C13.48670834 34.4844072 16.77484237 35.63837666 20 37.375 C17.94673296 42.41483728 14.52743941 45.48908514 9.875 48.1875 C3.78226424 50.49716454 -3.27056143 50.48737607 -9.25 47.875 C-14.80674928 44.63927974 -18.84980177 39.97544816 -21.4375 34.125 C-22.95205548 24.02796346 -22.49403544 16.2287798 -16.83203125 7.59375 C-12.3462435 1.67076812 -7.23519543 -0.04759997 0 0 Z " fill="#D6D0B9" transform="translate(430,81.625)"/>
<path d="M0 0 C4.29 0 8.58 0 13 0 C13.01981934 0.91289795 13.03963867 1.8257959 13.06005859 2.76635742 C13.13836264 6.16782472 13.22506225 9.56886604 13.31738281 12.9699707 C13.35555952 14.43928862 13.39043182 15.90869639 13.421875 17.37817383 C13.46777289 19.49593114 13.52572372 21.6130759 13.5859375 23.73046875 C13.6173584 25.00301514 13.6487793 26.27556152 13.68115234 27.58666992 C13.98465487 30.83572722 14.49771061 33.11855423 16 36 C18.88861709 37.44430855 20.79647701 37.37688506 24 37 C27.10164769 34.44975635 28.72566416 32.82300753 30 29 C30.15109093 26.79040747 30.24873801 24.57699953 30.31640625 22.36328125 C30.35830078 21.06455078 30.40019531 19.76582031 30.44335938 18.42773438 C30.48316987 17.05599239 30.52288216 15.68424756 30.5625 14.3125 C30.60570835 12.92902355 30.64932339 11.54555973 30.69335938 10.16210938 C30.79957965 6.77486286 30.90030688 3.38744491 31 0 C35.29 0 39.58 0 44 0 C44 15.84 44 31.68 44 48 C40.04 48 36.08 48 32 48 C32 46.35 32 44.7 32 43 C31.39414062 43.433125 30.78828125 43.86625 30.1640625 44.3125 C24.01163588 48.40149738 19.3913455 50.2659917 12 49 C6.76176762 47.25392254 4.6328552 44.79555769 2 40 C0.07776567 35.27354488 -0.26830553 31.01649951 -0.1953125 25.9765625 C-0.1924826 25.23038666 -0.18965271 24.48421082 -0.18673706 23.71542358 C-0.17561687 21.35178012 -0.15052821 18.98852732 -0.125 16.625 C-0.11495962 15.01432842 -0.10583562 13.40365085 -0.09765625 11.79296875 C-0.0757044 7.86183056 -0.04123185 3.93098133 0 0 Z " fill="#D6D1B9" transform="translate(298,158)"/>
<path d="M0 0 C12.87 0 25.74 0 39 0 C39 11.23076923 39 11.23076923 35.0625 15.4375 C34.24652344 16.345 33.43054688 17.2525 32.58984375 18.1875 C31.73519531 19.115625 30.88054687 20.04375 30 21 C28.36212534 22.96852541 26.73663501 24.9474351 25.125 26.9375 C24.40570313 27.81277344 23.68640625 28.68804687 22.9453125 29.58984375 C21.25034023 31.68983951 19.61921239 33.84105015 18 36 C25.26 36.33 32.52 36.66 40 37 C40 40.63 40 44.26 40 48 C34.46411467 48.02464775 28.928261 48.04283496 23.39233398 48.05493164 C21.5075627 48.05997244 19.62279535 48.06680498 17.73803711 48.07543945 C15.03498364 48.08751617 12.33198169 48.09323068 9.62890625 48.09765625 C8.78099014 48.10281754 7.93307404 48.10797882 7.0594635 48.11329651 C5.03928932 48.11349195 3.01922066 48.06206211 1 48 C0 47 0 47 -0.43359375 43.421875 C-0.35510246 37.99752316 2.43854362 35.13354722 5.9375 31.25 C7.12949791 29.86099791 8.31958745 28.47035596 9.5078125 27.078125 C10.09852539 26.39556641 10.68923828 25.71300781 11.29785156 25.00976562 C13.76324497 22.09881919 16.05089579 19.0703726 18.3125 16 C19.529375 14.35 20.74625 12.7 22 11 C14.74 11 7.48 11 0 11 C0 7.37 0 3.74 0 0 Z " fill="#D4CEB8" transform="translate(393,158)"/>
<path d="M0 0 C12.54 0 25.08 0 38 0 C38 11.22061856 38 11.22061856 34.8125 14.625 C34.09707031 15.429375 33.38164062 16.23375 32.64453125 17.0625 C31.77183594 18.031875 30.89914062 19.00125 30 20 C28.29909393 22.05574248 26.62142125 24.12888132 24.94799805 26.20703125 C22.31046282 29.48089375 19.65317816 32.73880184 17 36 C23.93 36.33 30.86 36.66 38 37 C38 40.63 38 44.26 38 48 C32.74894558 48.02464928 27.49792455 48.04283568 22.24682617 48.05493164 C20.45905979 48.05997218 18.67129755 48.06680454 16.88354492 48.07543945 C14.31948832 48.0875173 11.75548603 48.09323094 9.19140625 48.09765625 C7.98515343 48.10539818 7.98515343 48.10539818 6.75453186 48.11329651 C4.83598285 48.11349215 2.91754632 48.06201983 1 48 C-0.53055055 46.46944945 -0.3170144 45.06377007 -0.4375 42.93359375 C-0.36425092 37.14577181 2.23462472 34.21013902 6 30.0625 C7.19168665 28.67862683 8.38309305 27.29451227 9.57421875 25.91015625 C10.15864746 25.2464502 10.74307617 24.58274414 11.34521484 23.89892578 C13.58555686 21.32805234 15.69951903 18.67644256 17.8125 16 C18.864375 14.68 19.91625 13.36 21 12 C14.07 11.67 7.14 11.34 0 11 C0 7.37 0 3.74 0 0 Z " fill="#D6D0B9" transform="translate(349,158)"/>
<path d="M0 0 C2.84561004 1.91413584 5.17733205 4.28900594 7.5859375 6.71875 C8.28772125 7.41005005 8.989505 8.1013501 9.71255493 8.81359863 C11.19075516 10.27896465 12.66125963 11.75212906 14.12451172 13.23242188 C16.36409298 15.48901015 18.63837187 17.70580545 20.91796875 19.921875 C22.35122099 21.35190249 23.78228675 22.78412544 25.2109375 24.21875 C25.89207611 24.87742065 26.57321472 25.53609131 27.2749939 26.21472168 C30.33705066 29.36924618 32.42058343 31.67833755 32.66186523 36.18798828 C31.93383343 40.38108625 31.17428375 41.81436572 28.19921875 44.7734375 C27.37599121 45.61487305 26.55276367 46.45630859 25.70458984 47.32324219 C24.8120752 48.20657227 23.91956055 49.08990234 23 50 C21.63623868 51.43825558 20.27253958 52.87658023 18.91360474 54.31939697 C17.04813218 56.28602265 15.15177514 58.22114033 13.2512207 60.15380859 C12.28047939 61.14645871 11.31607194 62.14533725 10.35766602 63.14990234 C8.94671171 64.62763754 7.51713119 66.08481234 6.08203125 67.5390625 C5.24905518 68.39709473 4.4160791 69.25512695 3.55786133 70.13916016 C0.43783008 72.40897768 -1.22241563 72.46581532 -5 72 C-6.875 70.9375 -6.875 70.9375 -8 69 C-8.49741922 64.70112906 -8.49610305 62.69095247 -5.9362793 59.12573242 C-4.99179932 58.21154541 -4.04731934 57.2973584 -3.07421875 56.35546875 C-2.57082474 55.8596077 -2.06743073 55.36374664 -1.54878235 54.8528595 C0.05590992 53.28056488 1.68351304 51.73456779 3.3125 50.1875 C4.39672485 49.1298342 5.47942508 48.0706031 6.56054688 47.00976562 C14.29687965 39.4687469 14.29687965 39.4687469 18 37 C17.48228233 32.9581691 15.58878183 31.40443249 12.5625 28.8125 C11.66144531 28.03003906 10.76039063 27.24757813 9.83203125 26.44140625 C8.89746094 25.63574219 7.96289062 24.83007812 7 24 C4.41635442 21.6728331 1.84305003 19.3348311 -0.7265625 16.9921875 C-2.63459658 15.32019887 -4.56875586 13.85202044 -6.625 12.375 C-9 10 -9 10 -9.5625 6.375 C-9 3 -9 3 -7.875 1.0625 C-4.96469979 -0.58667012 -3.32956416 -0.48236304 0 0 Z " fill="#D9D3BB" transform="translate(185,99)"/>
<path d="M0 0 C3.11434125 1.20385576 4.22092306 2.00332363 5.64697266 5.02319336 C5.45601513 10.07785546 2.53026708 12.66200219 -0.91943359 15.98022461 C-1.47291977 16.52805099 -2.02640594 17.07587738 -2.59666443 17.64030457 C-4.36042745 19.38174088 -6.13760521 21.10872695 -7.91552734 22.83569336 C-9.11631 24.01640632 -10.31619082 25.1980372 -11.51513672 26.38061523 C-14.45075564 29.27221605 -17.39848217 32.15093867 -20.35302734 35.02319336 C-18.77118312 39.02391412 -15.95284367 41.5481459 -12.87255859 44.41772461 C-11.77988396 45.46563825 -10.68811392 46.51449579 -9.59716797 47.56420898 C-7.88077805 49.20632612 -6.15938063 50.84142186 -4.42163086 52.4609375 C-2.74096857 54.03252464 -1.08693098 55.62847514 0.56494141 57.23022461 C1.08879929 57.7065181 1.61265717 58.18281158 2.15238953 58.67353821 C3.58911133 60.08886719 3.58911133 60.08886719 5.64697266 63.02319336 C5.65209961 66.76025391 5.65209961 66.76025391 4.64697266 70.02319336 C1.39960347 72.18810615 0.41038935 72.47015141 -3.35302734 72.02319336 C-5.16914368 70.86218262 -5.16914368 70.86218262 -6.8581543 69.21264648 C-7.4984407 68.59780396 -8.13872711 67.98296143 -8.79841614 67.3494873 C-9.8096479 66.33719055 -9.8096479 66.33719055 -10.84130859 65.30444336 C-11.54450729 64.61314331 -12.24770599 63.92184326 -12.97221375 63.20959473 C-14.4552489 61.74310428 -15.93173789 60.26996854 -17.40209961 58.79077148 C-19.65247485 56.53626979 -21.93517545 54.31859 -24.22216797 52.10131836 C-25.65982418 50.67114394 -27.09544139 49.23891633 -28.52880859 47.80444336 C-29.21308426 47.14577271 -29.89735992 46.48710205 -30.60237122 45.80847168 C-33.55604535 42.78132898 -35.78729179 40.3473575 -36.20385742 36.02539062 C-35.69549326 30.77544343 -32.18593383 27.72596362 -28.56396484 24.20678711 C-27.86792145 23.50546158 -27.17187805 22.80413605 -26.45474243 22.08155823 C-24.98312866 20.60888533 -23.50152567 19.1461354 -22.01074219 17.69287109 C-19.72982365 15.46244989 -17.49176421 13.1946463 -15.25537109 10.91967773 C-13.81895645 9.49214122 -12.38022935 8.06692697 -10.93896484 6.64428711 C-10.26997162 5.96426132 -9.60097839 5.28423553 -8.91171265 4.58360291 C-4.169605 0.02884174 -4.169605 0.02884174 0 0 Z " fill="#DAD3BC" transform="translate(58.35302734375,98.976806640625)"/>
<path d="M0 0 C14.19 0 28.38 0 43 0 C41.51679151 3.70802124 40.67472817 5.72611819 38.375 8.6875 C37.84777344 9.3784375 37.32054687 10.069375 36.77734375 10.78125 C35.55347373 12.30907016 34.29297713 13.80802614 33.00390625 15.28125 C27.52210571 21.66459429 24.60127106 28.02110127 22 36 C21.34 36 20.68 36 20 36 C19.78384033 35.41508789 19.56768066 34.83017578 19.3449707 34.22753906 C18.34982904 31.56219816 17.33148466 28.9063119 16.3125 26.25 C15.97283203 25.32960937 15.63316406 24.40921875 15.28320312 23.4609375 C13.26287797 18.24963148 11.73495989 15.22157081 7 12 C4.98046875 9.4921875 4.98046875 9.4921875 3.1875 6.875 C2.28064453 5.57175781 2.28064453 5.57175781 1.35546875 4.2421875 C0 2 0 2 0 0 Z " fill="#EDAB11" transform="translate(99,183)"/>
<path d="M0 0 C16.17 0 32.34 0 49 0 C49 4.62 49 9.24 49 14 C32.83 14 16.66 14 0 14 C0 9.38 0 4.76 0 0 Z " fill="#F3AD09" transform="translate(96,154)"/>
<path d="M0 0 C3.40212299 1.61382757 6.10324519 3.58603766 9 6 C8.03342406 8.60231985 7.0491946 10.92275119 5.5546875 13.26953125 C3.83225705 16.29460383 2.90160267 19.15881829 1.9375 22.5 C0.13174333 28.70774181 0.13174333 28.70774181 -1.01953125 31.26171875 C-2.53681541 35.49923348 -3.00919335 39.86675301 -3.625 44.3125 C-3.7590625 45.24384766 -3.893125 46.17519531 -4.03125 47.13476562 C-4.35973711 49.42244371 -4.68246817 51.71078004 -5 54 C-8.80581964 52.29051983 -9.91244395 50.87579075 -11.6875 47.0625 C-12.10386719 46.18722656 -12.52023438 45.31195313 -12.94921875 44.41015625 C-15.88535413 37.67560037 -16.62696332 29.98888465 -14.32324219 22.92480469 C-10.84923658 14.50929168 -6.04988904 6.80612517 0 0 Z " fill="#EFAD0D" transform="translate(86,113)"/>
<path d="M0 0 C1.2109375 1.48706055 1.2109375 1.48706055 2.375 3.38671875 C3.01695312 4.4240918 3.01695312 4.4240918 3.671875 5.48242188 C4.11015625 6.21009766 4.5484375 6.93777344 5 7.6875 C5.65742188 8.75000977 5.65742188 8.75000977 6.328125 9.83398438 C7.57921609 11.87454409 8.795792 13.93149814 10 16 C10.5878125 17.00417969 11.175625 18.00835937 11.78125 19.04296875 C15.04941523 26.97245938 13.86402144 36.91423201 10.8125 44.75 C8.93063508 49.02750884 6.78925488 51.27428388 3 54 C2.90203125 52.94683594 2.8040625 51.89367187 2.703125 50.80859375 C1.26093206 36.43199525 -1.60514814 23.68348017 -8.609375 10.92578125 C-10 8 -10 8 -10 4 C-8.57421875 2.48046875 -8.57421875 2.48046875 -6.6875 1.1875 C-5.76517578 0.52814453 -5.76517578 0.52814453 -4.82421875 -0.14453125 C-3 -1 -3 -1 0 0 Z " fill="#F0AC10" transform="translate(157,114)"/>
<path d="M0 0 C2.57637471 1.88515223 3.59667428 3.19334857 5 6 C5.17721577 8.45487423 5.27736821 10.85561664 5.3125 13.3125 C5.34988281 14.62863281 5.38726562 15.94476563 5.42578125 17.30078125 C4.94219336 21.50222832 3.96928843 23.06376487 1 26 C-2.21107887 27.60553944 -5.51670728 27.47469056 -9 27 C-12.30839741 25.13003625 -13.64974804 23.71718259 -15.3125 20.3125 C-16.47796816 14.69706252 -16.753052 9.97227906 -14.6875 4.5625 C-11.01069522 -1.02079615 -6.12052375 -0.84282622 0 0 Z " fill="#0E151A" transform="translate(330,93)"/>
<path d="M0 0 C9.9 0 19.8 0 30 0 C30.99 4.95 31.98 9.9 33 15 C21.45 15 9.9 15 -2 15 C-1 4 -1 4 0 0 Z " fill="#F2AC09" transform="translate(106,124)"/>
<path d="M0 0 C3.28931514 1.72689045 3.8140267 2.4420801 5 6 C5.14619515 8.28851645 5.22091336 10.58200316 5.25 12.875 C5.27578125 14.08929688 5.3015625 15.30359375 5.328125 16.5546875 C4.97446831 20.26808278 4.25141594 22.06474277 2 25 C-1.17827253 27.11884835 -3.18944129 27.5715274 -6.9921875 27.41015625 C-9.77275924 26.84214062 -11.51177676 25.61969746 -13.16015625 23.31640625 C-15.23765672 17.58637008 -15.20583985 9.35391735 -13.16015625 3.6640625 C-9.86722464 -1.05913234 -5.15733099 -0.61552232 0 0 Z " fill="#0E1419" transform="translate(382,93)"/>
<path d="M0 0 C16.17 0 32.34 0 49 0 C49 4.62 49 9.24 49 14 C32.83 14 16.66 14 0 14 C0 9.38 0 4.76 0 0 Z M1 5 C1 7.64 1 10.28 1 13 C16.51 13 32.02 13 48 13 C48 10.36 48 7.72 48 5 C41.78881387 4.83245868 35.57750174 4.67189113 29.3659668 4.51782227 C27.25231051 4.46440857 25.13870172 4.4090797 23.02514648 4.35180664 C19.98952478 4.26987834 16.95379962 4.19480865 13.91796875 4.12109375 C12.97100632 4.09405869 12.02404388 4.06702362 11.04838562 4.03916931 C10.16769913 4.01907303 9.28701263 3.99897675 8.37963867 3.97827148 C7.60464523 3.95828598 6.82965179 3.93830048 6.03117371 3.91770935 C3.79480595 3.91419509 3.79480595 3.91419509 1 5 Z " fill="#F0B119" transform="translate(96,154)"/>
<path d="M0 0 C2.58396679 -0.08112454 5.16537568 -0.14054748 7.75 -0.1875 C8.47960937 -0.21263672 9.20921875 -0.23777344 9.9609375 -0.26367188 C13.16728593 -0.30739481 15.58698658 -0.20455853 18.484375 1.23046875 C20.38259059 3.44668437 20.53859079 4.60569092 20.5 7.5 C20.5103125 8.2734375 20.520625 9.046875 20.53125 9.84375 C20 12 20 12 18.484375 13.76953125 C14.94868995 15.52069602 11.59835845 15.32008479 7.75 15.1875 C6.63238281 15.16719727 6.63238281 15.16719727 5.4921875 15.14648438 C3.66114584 15.11127204 1.83047831 15.05746851 0 15 C0 10.05 0 5.1 0 0 Z " fill="#0B1218" transform="translate(257,179)"/>
<path d="M0 0 C3.43595166 1.52708963 6.11912454 3.59927045 9 6 C8.03342406 8.60231985 7.0491946 10.92275119 5.5546875 13.26953125 C3.83225705 16.29460383 2.90160267 19.15881829 1.9375 22.5 C0.13174333 28.70774181 0.13174333 28.70774181 -1.01953125 31.26171875 C-2.53681541 35.49923348 -3.00919335 39.86675301 -3.625 44.3125 C-3.7590625 45.24384766 -3.893125 46.17519531 -4.03125 47.13476562 C-4.35973711 49.42244371 -4.68246817 51.71078004 -5 54 C-6.9375 53.1875 -6.9375 53.1875 -9 52 C-9.495 50.515 -9.495 50.515 -10 49 C-9.34 49 -8.68 49 -8 49 C-8 49.66 -8 50.32 -8 51 C-7.34 51 -6.68 51 -6 51 C-6.061875 49.989375 -6.12375 48.97875 -6.1875 47.9375 C-6.1875 37.76049713 -3.56600721 26.13201443 1 17 C-0.0725 17.61875 -1.145 18.2375 -2.25 18.875 C-4.79780984 20.3323679 -7.35259355 21.72924491 -10 23 C-10 22.34 -10 21.68 -10 21 C-9.34 20.67 -8.68 20.34 -8 20 C-8 19.01 -8 18.02 -8 17 C-8.99 17.33 -9.98 17.66 -11 18 C-9.68493198 13.35250831 -7.83857485 10.0362944 -4.9375 6.1875 C-4.22464844 5.23230469 -3.51179688 4.27710937 -2.77734375 3.29296875 C-1 1 -1 1 0 0 Z " fill="#EEAC0F" transform="translate(86,113)"/>
<path d="M0 0 C2.60478883 -0.0809313 5.20706653 -0.14045434 7.8125 -0.1875 C8.55048828 -0.21263672 9.28847656 -0.23777344 10.04882812 -0.26367188 C15.46855541 -0.33724283 15.46855541 -0.33724283 17.98828125 1.26171875 C19.19290174 3.3314335 19.40213556 4.61207052 19.375 7 C19.38273437 7.680625 19.39046875 8.36125 19.3984375 9.0625 C19 11 19 11 17.98828125 12.73828125 C14.81313323 14.75315907 11.44355401 14.31117782 7.8125 14.1875 C6.68811523 14.16719727 6.68811523 14.16719727 5.54101562 14.14648438 C3.69370233 14.11118539 1.84675934 14.05737917 0 14 C0 9.38 0 4.76 0 0 Z " fill="#0C1317" transform="translate(257,153)"/>
<path d="M0 0 C9.9 0 19.8 0 30 0 C30.495 4.95 30.495 4.95 31 10 C30.34 10 29.68 10 29 10 C26.875 4.375 26.875 4.375 28 1 C27.01 1.33 26.02 1.66 25 2 C23.57779056 2.09176662 22.15172782 2.13066478 20.7265625 2.1328125 C19.9015625 2.13410156 19.0765625 2.13539062 18.2265625 2.13671875 C17.36804688 2.13285156 16.50953125 2.12898438 15.625 2.125 C14.77421875 2.12886719 13.9234375 2.13273437 13.046875 2.13671875 C8.90380091 2.13026536 5.03935564 2.04724035 1 1 C1.020625 2.0725 1.04125 3.145 1.0625 4.25 C1 8 1 8 0 12 C16.335 12.495 16.335 12.495 33 13 C33 13.66 33 14.32 33 15 C21.45 15 9.9 15 -2 15 C-1 4 -1 4 0 0 Z " fill="#CEA034" transform="translate(106,124)"/>
<path d="M0 0 C2.9375 2.25 2.9375 2.25 5 5 C5 6.32 5 7.64 5 9 C-0.61 9 -6.22 9 -12 9 C-11 3 -11 3 -9.375 1.125 C-5.97792899 -0.4841389 -3.71564293 -0.52149375 0 0 Z " fill="#0B1117" transform="translate(434,92)"/>
<path d="M0 0 C0.66 0 1.32 0 2 0 C2.66 1.65 3.32 3.3 4 5 C4.66 5 5.32 5 6 5 C6.66 4.01 7.32 3.02 8 2 C8.66 2 9.32 2 10 2 C10.33 3.32 10.66 4.64 11 6 C11.99 4.68 12.98 3.36 14 2 C14.66 2.33 15.32 2.66 16 3 C15.401875 4.155 14.80375 5.31 14.1875 6.5 C12.14157173 10.57729478 10.53361514 14.70587761 9 19 C8.34 19 7.68 19 7 19 C5.82905995 16.2100561 4.66309073 13.41821403 3.5 10.625 C2.99919922 9.43390625 2.99919922 9.43390625 2.48828125 8.21875 C2.17246094 7.45820313 1.85664062 6.69765625 1.53125 5.9140625 C1.23798828 5.2123291 0.94472656 4.5105957 0.64257812 3.78759766 C0 2 0 2 0 0 Z " fill="#E6AB1C" transform="translate(112,200)"/>
<path d="M0 0 C11.55 0 23.1 0 35 0 C27.68668419 4.87554387 16.51658356 3.09302094 8 3 C8 2.34 8 1.68 8 1 C5.36 1 2.72 1 0 1 C0 0.67 0 0.34 0 0 Z " fill="#040E0C" transform="translate(104,139)"/>
<path d="M0 0 C5.436858 5.436858 6.0368575 15.1293861 6.0625 22.4375 C6.041875 23.613125 6.02125 24.78875 6 26 C6.66 26 7.32 26 8 26 C8.268125 25.46375 8.53625 24.9275 8.8125 24.375 C10.20833333 21.58333333 11.60416667 18.79166667 13 16 C14 19 14 19 13.14453125 21.375 C12.70496094 22.24125 12.26539063 23.1075 11.8125 24 C11.38582031 24.86625 10.95914063 25.7325 10.51953125 26.625 C8.93653861 29.09918901 7.4435951 30.40930854 5 32 C4.83564453 30.36804688 4.83564453 30.36804688 4.66796875 28.703125 C3.82158035 20.72523175 2.76579118 13.06850528 0.5859375 5.3203125 C0 3 0 3 0 0 Z " fill="#E2B329" transform="translate(155,136)"/>
<path d="M0 0 C1.65 0 3.3 0 5 0 C4.01 0.495 4.01 0.495 3 1 C3 1.66 3 2.32 3 3 C3.99 3 4.98 3 6 3 C6 3.66 6 4.32 6 5 C16.56 5 27.12 5 38 5 C38 5.33 38 5.66 38 6 C26.45 6 14.9 6 3 6 C3 5.34 3 4.68 3 4 C1.35 4 -0.3 4 -2 4 C-2 3.34 -2 2.68 -2 2 C-1.34 2 -0.68 2 0 2 C0 1.34 0 0.68 0 0 Z " fill="#0A0E26" transform="translate(98,176)"/>
<path d="M0 0 C0.66 0.33 1.32 0.66 2 1 C1.71390693 2.39698636 1.42083095 3.7925433 1.125 5.1875 C0.96257812 5.96480469 0.80015625 6.74210938 0.6328125 7.54296875 C0 10 0 10 -0.96875 12.15625 C-2.51974636 16.43323996 -3.00259108 20.81908869 -3.625 25.3125 C-3.7590625 26.24384766 -3.893125 27.17519531 -4.03125 28.13476562 C-4.35973711 30.42244371 -4.68246817 32.71078004 -5 35 C-6.9375 34.1875 -6.9375 34.1875 -9 33 C-9.33 32.01 -9.66 31.02 -10 30 C-9.34 30 -8.68 30 -8 30 C-8 30.66 -8 31.32 -8 32 C-7.34 32 -6.68 32 -6 32 C-6.061875 30.989375 -6.12375 29.97875 -6.1875 28.9375 C-6.1875 19.10528843 -3.37691297 9.16590663 0 0 Z " fill="#D9AB2F" transform="translate(86,132)"/>
<path d="M0 0 C0.33 0 0.66 0 1 0 C1 2.31 1 4.62 1 7 C0.34 7 -0.32 7 -1 7 C-1.144375 8.134375 -1.28875 9.26875 -1.4375 10.4375 C-2 14 -2 14 -3 15 C-3.21326403 20.6047709 -3.21326403 20.6047709 -2 26 C-3.65 26.33 -5.3 26.66 -7 27 C-6.47650497 20.3801072 -5.15274936 14.68234447 -2.9375 8.4375 C-2.65583984 7.61958984 -2.37417969 6.80167969 -2.08398438 5.95898438 C-1.39764559 3.96976517 -0.7000155 1.9844476 0 0 Z " fill="#271C0A" transform="translate(89,129)"/>
<path d="M0 0 C3.43595166 1.52708963 6.11912454 3.59927045 9 6 C7.66197896 9.60236433 6.01142412 12.7314358 4 16 C3.31903578 17.32608822 2.64669414 18.65686601 2 20 C2.45822468 16.53058454 2.89131683 13.32604951 4 10 C4.66 10 5.32 10 6 10 C6 9.01 6 8.02 6 7 C5.34 6.67 4.68 6.34 4 6 C4 5.34 4 4.68 4 4 C3.34 4 2.68 4 2 4 C2 3.34 2 2.68 2 2 C1.54625 2.495 1.0925 2.99 0.625 3.5 C-1 5 -1 5 -3 5 C-1.125 1.125 -1.125 1.125 0 0 Z " fill="#D6A930" transform="translate(86,113)"/>
<path d="M0 0 C2.97 0 5.94 0 9 0 C9 0.33 9 0.66 9 1 C12.3 1.33 15.6 1.66 19 2 C18.67 2.66 18.34 3.32 18 4 C12.72 4 7.44 4 2 4 C2 3.34 2 2.68 2 2 C1.34 2 0.68 2 0 2 C0 1.34 0 0.68 0 0 Z " fill="#201B13" transform="translate(112,121)"/>
<path d="M0 0 C1.6875 2.5625 1.6875 2.5625 3 5 C1.68 4.67 0.36 4.34 -1 4 C-1 3.01 -1 2.02 -1 1 C-4.11785113 1.64644661 -4.11785113 1.64644661 -5 4 C-4.34 4 -3.68 4 -3 4 C-3 4.66 -3 5.32 -3 6 C-4.98 6 -6.96 6 -9 6 C-9.33 6.66 -9.66 7.32 -10 8 C-10 4 -10 4 -8.57421875 2.48046875 C-7.95160156 2.05378906 -7.32898438 1.62710938 -6.6875 1.1875 C-5.76517578 0.52814453 -5.76517578 0.52814453 -4.82421875 -0.14453125 C-3 -1 -3 -1 0 0 Z " fill="#DBAA2B" transform="translate(157,114)"/>
<path d="M0 0 C2.72705554 -0.22111261 4.46420662 -0.30361625 6.875 1.0625 C8.69848531 4.20294693 7.8658284 6.5985313 7 10 C4 12 4 12 1.8125 11.625 C1.214375 11.41875 0.61625 11.2125 0 11 C0.66 11 1.32 11 2 11 C2 10.34 2 9.68 2 9 C2.99 9 3.98 9 5 9 C5 7.02 5 5.04 5 3 C2.525 2.01 2.525 2.01 0 1 C0 0.67 0 0.34 0 0 Z " fill="#C8C6B5" transform="translate(141,44)"/>
<path d="M0 0 C2.05710856 3.08566284 2.78346093 5.36985312 3.6875 8.9375 C3.95949219 9.97777344 4.23148438 11.01804688 4.51171875 12.08984375 C4.97828785 14.8705956 4.93894816 16.38480882 4 19 C3.01 19 2.02 19 1 19 C1.01160156 18.38253906 1.02320313 17.76507813 1.03515625 17.12890625 C1.09699663 11.32474456 0.74278956 5.75661912 0 0 Z " fill="#271F12" transform="translate(154,136)"/>
<path d="M0 0 C0.66 0 1.32 0 2 0 C1.5547115 5.27315333 0.91626837 10.01770224 -1 15 C-1.66 14.67 -2.32 14.34 -3 14 C-3 10.7 -3 7.4 -3 4 C-2.01 4.495 -2.01 4.495 -1 5 C-0.67 3.35 -0.34 1.7 0 0 Z " fill="#201C0E" transform="translate(104,124)"/>
<path d="M0 0 C1.98 0.495 1.98 0.495 4 1 C3.01 1.99 2.02 2.98 1 4 C2.12188841 7.08519311 3.4616463 9.86805649 5.125 12.6875 C7 16 7 16 7 18 C4 17 4 17 2.8671875 15.109375 C-1.54172767 4.62518302 -1.54172767 4.62518302 0 0 Z " fill="#1D150C" transform="translate(146,115)"/>
<path d="M0 0 C2.76765757 0.83707126 5.32775632 1.87484476 8 3 C7.67 3.99 7.34 4.98 7 6 C6.05125 5.525625 5.1025 5.05125 4.125 4.5625 C-0.4465467 2.57242218 -5.06888627 2.28773098 -10 2 C-6.22486447 -0.51675702 -4.4906709 -0.36808778 0 0 Z " fill="#181E1C" transform="translate(378,79)"/>
<path d="M0 0 C3.96 0.33 7.92 0.66 12 1 C11.25 6.75 11.25 6.75 9 9 C8.67 7.02 8.34 5.04 8 3 C5.36 2.34 2.72 1.68 0 1 C0 0.67 0 0.34 0 0 Z " fill="#E0DCCB" transform="translate(284,110)"/>
<path d="M0 0 C0.33 0 0.66 0 1 0 C1.24900646 1.93505023 1.47356242 3.87325934 1.6875 5.8125 C1.81511719 6.89144531 1.94273437 7.97039062 2.07421875 9.08203125 C2 12 2 12 0.65625 13.84375 C-1.21243246 15.1483019 -2.76604055 15.61483458 -5 16 C-4.360625 15.21625 -3.72125 14.4325 -3.0625 13.625 C-0.21991345 9.44649822 -0.19460806 4.92358402 0 0 Z " fill="#323934" transform="translate(387,158)"/>
<path d="M0 0 C0.33 1.32 0.66 2.64 1 4 C1.66 4 2.32 4 3 4 C3 6.64 3 9.28 3 12 C2.01 12 1.02 12 0 12 C0 8.04 0 4.08 0 0 Z " fill="#05120D" transform="translate(146,156)"/>
<path d="M0 0 C0.68707031 0.0721875 1.37414062 0.144375 2.08203125 0.21875 C2.98308594 0.3115625 3.88414062 0.404375 4.8125 0.5 C5.70582031 0.5928125 6.59914063 0.685625 7.51953125 0.78125 C10.08305099 1.04392401 10.08305099 1.04392401 13 1 C13.33 1.66 13.66 2.32 14 3 C12.22925083 3.02705729 10.45838289 3.04642195 8.6875 3.0625 C7.70136719 3.07410156 6.71523438 3.08570313 5.69921875 3.09765625 C3 3 3 3 0 2 C0 1.34 0 0.68 0 0 Z " fill="#C7C5B2" transform="translate(422,128)"/>
<path d="M0 0 C0.33 0 0.66 0 1 0 C1.22304441 1.74818591 1.4278645 3.49870323 1.625 5.25 C1.74101563 6.22453125 1.85703125 7.1990625 1.9765625 8.203125 C2.00112537 11.13429393 1.5312717 12.54528964 0 15 C-0.33 14.67 -0.66 14.34 -1 14 C-0.90968426 11.64305046 -0.75311872 9.28846418 -0.5625 6.9375 C-0.46066406 5.64714844 -0.35882813 4.35679687 -0.25390625 3.02734375 C-0.17011719 2.02832031 -0.08632812 1.02929688 0 0 Z " fill="#051423" transform="translate(92,153)"/>
<path d="M0 0 C0 1.32 0 2.64 0 4 C0.66 4.33 1.32 4.66 2 5 C-1.63 5 -5.26 5 -9 5 C-2.33333333 0 -2.33333333 0 0 0 Z " fill="#1B1C1C" transform="translate(389,126)"/>
<path d="M0 0 C0.33 0.66 0.66 1.32 1 2 C0.00390625 4.3828125 0.00390625 4.3828125 -1.4375 7.125 C-1.91058594 8.03507813 -2.38367188 8.94515625 -2.87109375 9.8828125 C-3.24363281 10.58148438 -3.61617187 11.28015625 -4 12 C-4.33 12 -4.66 12 -5 12 C-5.3125 8.8125 -5.3125 8.8125 -5 5 C-2.5 2.0625 -2.5 2.0625 0 0 Z " fill="#DDDBCA" transform="translate(28,126)"/>
<path d="M0 0 C5.42693662 0.48239437 5.42693662 0.48239437 7.9375 2.75 C9.27773867 5.58815249 8.90110078 7.05094291 8 10 C7.67 10 7.34 10 7 10 C6.773125 9.0925 6.54625 8.185 6.3125 7.25 C4.81872023 3.55111676 3.24599423 2.22094342 0 0 Z " fill="#C7C5BB" transform="translate(55,99)"/>
<path d="M0 0 C3.65316671 1.24976756 4.78065836 1.67098753 7 5 C7 5.99 7 6.98 7 8 C6.34 8 5.68 8 5 8 C5 6.68 5 5.36 5 4 C3.35 4 1.7 4 0 4 C-0.33 3.01 -0.66 2.02 -1 1 C-0.67 0.67 -0.34 0.34 0 0 Z " fill="#14171A" transform="translate(432,92)"/>
<path d="M0 0 C0.66 0 1.32 0 2 0 C2.680625 1.670625 2.680625 1.670625 3.375 3.375 C4.72465986 6.96199008 4.72465986 6.96199008 7 9 C6.34 10.32 5.68 11.64 5 13 C4.16209211 11.21046815 3.32980604 9.41830305 2.5 7.625 C1.80390625 6.12839844 1.80390625 6.12839844 1.09375 4.6015625 C0 2 0 2 0 0 Z " fill="#D8AC30" transform="translate(112,200)"/>
<path d="M0 0 C0.99 0.66 1.98 1.32 3 2 C0.16569547 5.2542015 -1.68607774 6.5206753 -6 7 C-4.02 4.69 -2.04 2.38 0 0 Z " fill="#212525" transform="translate(58,113)"/>
<path d="M0 0 C-0.33 1.32 -0.66 2.64 -1 4 C-1.99 4 -2.98 4 -4 4 C-4.66 5.32 -5.32 6.64 -6 8 C-6.66 7.34 -7.32 6.68 -8 6 C-7.0479279 4.99403703 -6.08812654 3.99538437 -5.125 3 C-4.59132812 2.443125 -4.05765625 1.88625 -3.5078125 1.3125 C-2 0 -2 0 0 0 Z " fill="#161918" transform="translate(53,120)"/>
<path d="M0 0 C2 2 2 2 2.3125 4.375 C1.94914998 7.42714016 1.01544839 8.73262056 -1 11 C-1.125 3.375 -1.125 3.375 0 0 Z " fill="#C6C1B2" transform="translate(302,95)"/>
<path d="M0 0 C0 4.0333534 -1.60879918 5.83517538 -4 9 C-4.66 9 -5.32 9 -6 9 C-4.83857315 4.64464931 -3.92300495 2.35380297 0 0 Z " fill="#D0CDB7" transform="translate(246,76)"/>
<path d="M0 0 C0.66 0 1.32 0 2 0 C2.2475 0.61875 2.495 1.2375 2.75 1.875 C4.20628639 4.35068687 5.37812506 4.95125002 8 6 C8 6.66 8 7.32 8 8 C4.11137013 6.73882275 2.10624401 5.54735833 0 2 C0 1.34 0 0.68 0 0 Z " fill="#CCCCBC" transform="translate(301,198)"/>
<path d="M0 0 C0.99 0.33 1.98 0.66 3 1 C3.144375 1.639375 3.28875 2.27875 3.4375 2.9375 C3.80104993 5.20311706 3.80104993 5.20311706 6.0625 6.25 C6.701875 6.4975 7.34125 6.745 8 7 C7.34 7.66 6.68 8.32 6 9 C4.99406757 7.8803014 3.9954151 6.7540588 3 5.625 C2.443125 4.99851563 1.88625 4.37203125 1.3125 3.7265625 C0 2 0 2 0 0 Z " fill="#D3A527" transform="translate(103,189)"/>
<path d="M0 0 C0.33 1.32 0.66 2.64 1 4 C-0.65 5.32 -2.3 6.64 -4 8 C-4.66 7.67 -5.32 7.34 -6 7 C-4.02 4.69 -2.04 2.38 0 0 Z " fill="#DDD6CB" transform="translate(411,175)"/>
<path d="M0 0 C0.99 0.99 1.98 1.98 3 3 C1.68 3.99 0.36 4.98 -1 6 C-2.32 4.68 -3.64 3.36 -5 2 C-3.35 1.34 -1.7 0.68 0 0 Z " fill="#CAC8B2" transform="translate(101,53)"/>
<path d="M0 0 C0.99 0 1.98 0 3 0 C3.33 1.32 3.66 2.64 4 4 C2 5 0 6 -2 7 C-1.42415568 4.61435923 -0.77772405 2.33317216 0 0 Z " fill="#CFCCB2" transform="translate(291,76)"/>
<path d="M0 0 C0.99 0 1.98 0 3 0 C1.70700306 2.88437779 0.34058637 4.87219421 -2 7 C-2.125 4.625 -2.125 4.625 -2 2 C-1.34 1.34 -0.68 0.68 0 0 Z " fill="#DEDAC4" transform="translate(140,45)"/>
<path d="M0 0 C0.33 0.66 0.66 1.32 1 2 C1.99 2 2.98 2 4 2 C4 3.65 4 5.3 4 7 C2.35 6.01 0.7 5.02 -1 4 C-0.67 2.68 -0.34 1.36 0 0 Z " fill="#16130F" transform="translate(91,126)"/>
<path d="M0 0 C0 0.66 0 1.32 0 2 C-2.64 2 -5.28 2 -8 2 C-8 1.34 -8 0.68 -8 0 C-4.71303767 -0.79953138 -3.28976808 -1.09658936 0 0 Z " fill="#292B28" transform="translate(329,118)"/>
</svg>
